<?xml version="1.0" encoding="UTF-8"?>
<svg xmlns="http://www.w3.org/2000/svg" xmlns:xlink="http://www.w3.org/1999/xlink" width="500px" height="500px" viewBox="0 0 500 500" version="1.1">
<g id="surface1">
<path style=" stroke:none;fill-rule:nonzero;fill:rgb(0%,0%,0%);fill-opacity:1;" d="M 238.234375 60.105469 C 205.175781 62.644531 171.339844 75.144531 145.605469 94.335938 C 113.183594 118.457031 90.527344 152.050781 80.324219 191.160156 C 76.660156 205.125 75.246094 215.820312 74.855469 231.6875 C 74.269531 256.347656 78.46875 279.148438 87.746094 302.246094 C 103.027344 340.234375 135.5 374.804688 172.070312 392.089844 C 196.4375 403.613281 220.898438 409.179688 247.070312 409.179688 C 257.519531 409.179688 263.964844 408.640625 273.683594 406.980469 C 301.417969 402.195312 327.394531 390.527344 347.265625 373.925781 C 354.785156 367.578125 356.691406 364.355469 356.691406 357.664062 C 356.691406 352.734375 356.054688 351.074219 352.441406 346.335938 L 350.488281 343.75 L 353.664062 340.332031 C 359.765625 333.738281 362.597656 325.878906 362.160156 316.894531 C 361.769531 309.472656 359.570312 303.5625 355.273438 298.339844 C 346.484375 287.695312 332.8125 283.542969 320.800781 287.839844 C 318.800781 288.574219 316.894531 289.355469 316.601562 289.597656 C 316.113281 289.988281 311.574219 285.398438 301.757812 274.65625 C 300.050781 272.753906 294.875 267.285156 290.285156 262.449219 C 285.695312 257.617188 281.738281 253.367188 281.542969 253.027344 C 281.347656 252.683594 281.738281 251.074219 282.421875 249.363281 C 283.058594 247.703125 283.742188 245.554688 283.9375 244.53125 C 284.179688 243.261719 284.570312 242.675781 285.351562 242.480469 C 285.9375 242.332031 300.050781 240.429688 316.652344 238.28125 C 333.300781 236.132812 350.976562 233.789062 355.910156 233.152344 C 360.839844 232.46875 365.234375 231.933594 365.722656 231.933594 C 366.261719 231.933594 367.140625 233.152344 368.359375 235.59375 C 371.679688 242.285156 377.492188 247.3125 385.253906 250.292969 C 388.625 251.5625 389.40625 251.660156 395.753906 251.660156 C 403.417969 251.660156 405.957031 251.023438 411.914062 247.605469 C 419.53125 243.210938 425.246094 235.839844 427.539062 227.488281 C 428.90625 222.460938 428.710938 214.597656 427.101562 209.714844 C 425.292969 204.296875 422.707031 200.046875 418.703125 196.042969 C 412.304688 189.695312 406.054688 186.960938 396.972656 186.621094 C 390.285156 186.375 386.867188 187.109375 381.300781 189.988281 C 376.613281 192.429688 372.902344 195.75 369.777344 200.292969 C 367.382812 203.808594 364.746094 209.472656 364.746094 211.277344 C 364.746094 211.765625 364.550781 212.402344 364.355469 212.742188 C 364.113281 213.085938 356.640625 214.304688 344.972656 215.820312 C 315.234375 219.675781 286.523438 223.582031 284.816406 223.925781 C 283.300781 224.21875 283.203125 224.121094 281.789062 221.289062 C 277.734375 213.230469 268.898438 206.199219 259.960938 203.90625 C 256.105469 202.929688 249.269531 202.929688 245.460938 203.90625 C 234.863281 206.640625 226.027344 215.378906 222.558594 226.5625 C 220.996094 231.738281 220.996094 239.453125 222.558594 244.628906 C 224.367188 250.390625 226.710938 254.148438 231.398438 258.789062 C 238.039062 265.332031 244.433594 268.066406 253.320312 268.066406 C 258.398438 268.066406 262.550781 267.1875 266.210938 265.332031 L 268.605469 264.109375 L 270.898438 266.699219 C 273.730469 269.824219 281.347656 278.125 294.09375 291.84375 C 299.367188 297.558594 303.710938 302.539062 303.710938 302.929688 C 303.710938 303.320312 303.175781 304.050781 302.539062 304.589844 C 301.417969 305.46875 301.125 305.46875 298.242188 304.832031 C 294.238281 304.003906 292.1875 304.296875 283.9375 306.980469 C 265.917969 312.839844 253.027344 313.769531 237.0625 310.496094 C 216.261719 306.25 199.121094 294.628906 187.648438 276.953125 C 182.519531 269.140625 178.90625 260.105469 176.710938 249.511719 C 175.78125 245.214844 175.585938 242.722656 175.585938 234.375 C 175.539062 225.78125 175.683594 223.632812 176.660156 219.140625 C 184.472656 182.175781 214.941406 157.273438 252.441406 157.175781 C 264.308594 157.175781 275.390625 159.617188 286.230469 164.695312 C 294.433594 168.503906 300.390625 172.753906 309.375 181.199219 C 318.996094 190.183594 330.8125 191.355469 340.1875 184.375 C 342.773438 182.421875 361.328125 164.011719 377.6875 147.214844 C 383.058594 141.699219 384.667969 139.695312 386.132812 136.71875 C 387.746094 133.445312 387.941406 132.714844 387.941406 129.148438 C 387.941406 125.78125 387.746094 124.804688 386.425781 122.070312 C 384.523438 118.164062 381.203125 114.207031 374.511719 108.105469 C 364.992188 99.316406 357.179688 93.457031 346.972656 87.304688 C 312.550781 66.601562 275.148438 57.273438 238.234375 60.105469 Z M 261.769531 84.960938 C 291.066406 87.253906 315.429688 95.652344 339.601562 111.816406 C 348.144531 117.527344 359.425781 127.195312 360.109375 129.441406 C 360.253906 129.929688 360.109375 130.859375 359.765625 131.542969 C 358.691406 133.59375 330.519531 162.109375 329.25 162.402344 C 327.636719 162.839844 326.5625 162.253906 321.777344 158.203125 C 312.648438 150.488281 299.171875 142.625 287.988281 138.476562 C 266.847656 130.664062 243.507812 129.785156 223.390625 136.035156 C 204.882812 141.796875 188.378906 152.292969 176.417969 165.917969 C 163.136719 181.101562 155.03125 197.949219 151.757812 217.285156 C 150.34375 225.488281 150.246094 242.578125 151.5625 250.925781 C 153.859375 265.625 159.082031 279.101562 167.285156 291.699219 C 171.679688 298.339844 175.148438 302.488281 181.445312 308.59375 C 195.3125 322.019531 210.988281 330.515625 229.640625 334.667969 C 238.917969 336.765625 242.433594 337.109375 253.417969 337.109375 C 267.578125 337.109375 274.609375 335.789062 290.136719 330.371094 C 297.21875 327.878906 300.292969 327.195312 300.292969 328.222656 C 300.292969 329.734375 304.199219 336.863281 306.640625 339.746094 C 309.375 343.015625 313.964844 346.582031 317.480469 348.144531 C 318.703125 348.679688 321.679688 349.65625 324.171875 350.292969 C 329.394531 351.707031 330.078125 352.148438 330.078125 354.050781 C 330.078125 357.714844 310.742188 369.824219 295.410156 375.730469 C 284.472656 379.929688 271.191406 383.054688 259.035156 384.324219 C 251.222656 385.105469 235.597656 384.617188 227.296875 383.347656 C 210.839844 380.859375 197.851562 376.757812 182.375 369.140625 C 152.980469 354.734375 128.027344 329.492188 114.40625 300.4375 C 104.640625 279.589844 99.609375 256.785156 99.609375 233.398438 C 99.609375 210.253906 104.394531 190.136719 114.941406 168.945312 C 125.195312 148.339844 139.160156 131.640625 158.691406 116.601562 C 175.195312 103.90625 193.410156 95.019531 214.113281 89.597656 C 229.835938 85.449219 246.828125 83.835938 261.769531 84.960938 Z M 400.683594 210.449219 C 406.59375 213.816406 407.667969 221.289062 403.027344 226.171875 C 400.734375 228.5625 398.683594 229.492188 395.753906 229.492188 C 386.425781 229.492188 381.886719 218.699219 388.429688 212.109375 C 391.945312 208.640625 396.484375 208.007812 400.683594 210.449219 Z M 259.132812 227.195312 C 262.988281 229.636719 265.089844 235.300781 263.671875 239.5 C 262.890625 241.796875 260.597656 244.433594 258.253906 245.652344 C 255.910156 246.824219 251.515625 246.875 249.21875 245.800781 C 246.632812 244.578125 243.847656 241.0625 243.164062 238.230469 C 242.089844 233.789062 244.433594 228.710938 248.585938 226.609375 C 251.613281 225.097656 256.25 225.339844 259.132812 227.195312 Z M 333.058594 309.082031 C 333.984375 309.324219 335.695312 310.351562 336.769531 311.277344 C 341.945312 315.671875 341.359375 323.730469 335.644531 327.636719 C 333.007812 329.394531 328.027344 329.636719 324.953125 328.125 C 320.753906 326.074219 318.164062 320.703125 319.335938 316.40625 C 320.019531 313.867188 323.585938 309.910156 325.832031 309.179688 C 327.882812 308.542969 330.859375 308.496094 333.058594 309.082031 Z M 333.058594 309.082031 "/>
</g>
</svg>
