<?xml version="1.0" standalone="no"?>
<!DOCTYPE svg PUBLIC "-//W3C//DTD SVG 20010904//EN"
 "http://www.w3.org/TR/2001/REC-SVG-20010904/DTD/svg10.dtd">
<svg version="1.0" xmlns="http://www.w3.org/2000/svg"
 width="1024.000000pt" height="1024.000000pt" viewBox="0 0 1024.000000 1024.000000"
 preserveAspectRatio="xMidYMid meet">

<g transform="translate(0.000000,1024.000000) scale(0.100000,-0.100000)"
fill="#000000" stroke="none">
<path d="M4879 9009 c-677 -52 -1370 -308 -1897 -701 -664 -494 -1128 -1182
-1337 -1983 -75 -286 -104 -505 -112 -830 -12 -505 74 -972 264 -1445 313
-778 978 -1486 1727 -1840 499 -236 1000 -350 1536 -350 214 0 346 11 545 45
568 98 1100 337 1507 677 154 130 193 196 193 333 0 101 -13 135 -87 232 l-40
53 65 70 c125 135 183 296 174 480 -8 152 -53 273 -141 380 -180 218 -460 303
-706 215 -41 -15 -80 -31 -86 -36 -10 -8 -103 86 -304 306 -35 39 -141 151
-235 250 -94 99 -175 186 -179 193 -4 7 4 40 18 75 13 34 27 78 31 99 5 26 13
38 29 42 12 3 301 42 641 86 341 44 703 92 804 105 101 14 191 25 201 25 11 0
29 -25 54 -75 68 -137 187 -240 346 -301 69 -26 85 -28 215 -28 157 0 209 13
331 83 156 90 273 241 320 412 28 103 24 264 -9 364 -37 111 -90 198 -172 280
-131 130 -259 186 -445 193 -137 5 -207 -10 -321 -69 -96 -50 -172 -118 -236
-211 -49 -72 -103 -188 -103 -225 0 -10 -4 -23 -8 -30 -5 -7 -158 -32 -397
-63 -609 -79 -1197 -159 -1232 -166 -31 -6 -33 -4 -62 54 -83 165 -264 309
-447 356 -79 20 -219 20 -297 0 -217 -56 -398 -235 -469 -464 -32 -106 -32
-264 0 -370 37 -118 85 -195 181 -290 136 -134 267 -190 449 -190 104 0 189
18 264 56 l49 25 47 -53 c58 -64 214 -234 475 -515 108 -117 197 -219 197
-227 0 -8 -11 -23 -24 -34 -23 -18 -29 -18 -88 -5 -82 17 -124 11 -293 -44
-369 -120 -633 -139 -960 -72 -426 87 -777 325 -1012 687 -105 160 -179 345
-224 562 -19 88 -23 139 -23 310 -1 176 2 220 22 312 160 757 784 1267 1552
1269 243 0 470 -50 692 -154 168 -78 290 -165 474 -338 197 -184 439 -208 631
-65 53 40 433 417 768 761 110 113 143 154 173 215 33 67 37 82 37 155 0 69
-4 89 -31 145 -39 80 -107 161 -244 286 -195 180 -355 300 -564 426 -705 424
-1471 615 -2227 557z m482 -509 c600 -47 1099 -219 1594 -550 175 -117 406
-315 420 -361 3 -10 0 -29 -7 -43 -22 -42 -599 -626 -625 -632 -33 -9 -55 3
-153 86 -187 158 -463 319 -692 404 -433 160 -911 178 -1323 50 -379 -118
-717 -333 -962 -612 -272 -311 -438 -656 -505 -1052 -29 -168 -31 -518 -4
-689 47 -301 154 -577 322 -835 90 -136 161 -221 290 -346 284 -275 605 -449
987 -534 190 -43 262 -50 487 -50 290 0 434 27 752 138 145 51 208 65 208 44
0 -31 80 -177 130 -236 56 -67 150 -140 222 -172 25 -11 86 -31 137 -44 107
-29 121 -38 121 -77 0 -75 -396 -323 -710 -444 -224 -86 -496 -150 -745 -176
-160 -16 -480 -6 -650 20 -337 51 -603 135 -920 291 -602 295 -1113 812 -1392
1407 -200 427 -303 894 -303 1373 0 474 98 886 314 1320 210 422 496 764 896
1072 338 260 711 442 1135 553 322 85 670 118 976 95z m2845 -2570 c121 -69
143 -222 48 -322 -47 -49 -89 -68 -149 -68 -191 0 -284 221 -150 356 72 71
165 84 251 34z m-2899 -343 c79 -50 122 -166 93 -252 -16 -47 -63 -101 -111
-126 -48 -24 -138 -25 -185 -3 -53 25 -110 97 -124 155 -22 91 26 195 111 238
62 31 157 26 216 -12z m1514 -1677 c19 -5 54 -26 76 -45 106 -90 94 -255 -23
-335 -54 -36 -156 -41 -219 -10 -86 42 -139 152 -115 240 14 52 87 133 133
148 42 13 103 14 148 2z"/>
</g>
</svg>
